<svg viewBox="0 0 27 34" xmlns="http://www.w3.org/2000/svg" class="sections__item__icon"><g fill-rule="nonzero" stroke="#000" stroke-width=".8" fill="none" stroke-linejoin="round"><path d="M2.08 3.88h12.875l8.373 8.373v19.574a1.08 1.08 0 0 1-1.08 1.08H2.08A1.08 1.08 0 0 1 1 31.827V4.96c0-.596.484-1.08 1.08-1.08Z" fill="#4520E6"/><path d="M5.013 1h12.875l8.373 8.373v19.574a1.08 1.08 0 0 1-1.08 1.08H5.013a1.08 1.08 0 0 1-1.08-1.08V2.08c0-.596.484-1.08 1.08-1.08Z" fill="#FFF"/><path fill="#4520E6" d="m17.835 1 8.373 8.373h-8.373z"/></g></svg>
