<svg width="310" height="83" viewBox="0 0 310 83" fill="none" xmlns="http://www.w3.org/2000/svg">
<path fill-rule="evenodd" clip-rule="evenodd" d="M98.6677 30.0899C97.6927 30.7221 96.4385 31.0387 94.9032 31.0387H86.3511V23.4509H94.7205C95.5489 23.4509 96.3769 23.5621 97.2058 23.7852C98.0342 24.0091 98.7284 24.3935 99.2888 24.9383C99.8495 25.484 100.13 26.2281 100.13 27.1699C100.13 28.4851 99.6419 29.4578 98.6677 30.0899ZM86.3511 12.7383H94.0993C95.4147 12.7383 96.5239 12.9986 97.425 13.5196C98.3261 14.0402 98.7773 14.908 98.7773 16.123C98.7773 17.2143 98.3503 18.0574 97.4981 18.6528C96.6446 19.2474 95.6581 19.5578 94.5382 19.5821H86.3511V12.7383ZM101.646 21.9631C100.903 21.4175 100.093 20.9959 99.2161 20.6984C100.386 20.2021 101.275 19.4889 101.884 18.5593C102.492 17.6292 102.797 16.5822 102.797 15.4169C102.797 13.284 102.091 11.6596 100.678 10.5432C99.2646 9.42805 97.1692 8.86987 94.392 8.86987H82.4039V34.9072H94.9762C96.0485 34.9072 97.12 34.7898 98.1923 34.5537C99.2646 34.3185 100.251 33.9153 101.153 33.345C102.054 32.7743 102.779 31.9934 103.328 31.0012C103.876 30.0101 104.149 28.7575 104.149 27.2442C104.149 26.005 103.918 24.9509 103.455 24.0831C102.992 23.2157 102.389 22.5088 101.646 21.9631Z" fill="white"/>
<path fill-rule="evenodd" clip-rule="evenodd" d="M117.145 24.7155L119.803 18.4658C120.148 17.6478 120.48 16.7929 120.8 15.8996C121.119 15.0068 121.452 14.0896 121.797 13.1471C122.117 14.065 122.437 14.9508 122.756 15.8068C123.076 16.6625 123.396 17.499 123.717 18.3175L126.449 24.7155H117.145ZM119.766 8.86987L108.727 34.9072H112.825L115.52 28.5836H128.074L130.732 34.9072H135.051L124.086 8.86987H119.766Z" fill="white"/>
<path fill-rule="evenodd" clip-rule="evenodd" d="M162.218 12.7383V17.4253V28.772L145.392 8.86987H141.632V12.7383V34.9072H145.652V24.0831V15.5582L162.404 34.9072H166.238V32.2886V12.7383V8.86987H162.218V12.7383Z" fill="white"/>
<path fill-rule="evenodd" clip-rule="evenodd" d="M194.589 26.4824C193.955 27.8587 192.96 28.9625 191.606 29.7931C190.251 30.6241 188.493 31.0391 186.33 31.0391H179.135V12.7384H186.33C188.468 12.7384 190.22 13.1604 191.587 14.0031C192.954 14.8459 193.955 15.9622 194.589 17.3511C195.222 18.7395 195.539 20.252 195.539 21.8881C195.539 23.5748 195.222 25.1061 194.589 26.4824ZM198.876 16.8852C198.317 15.3109 197.478 13.9221 196.359 12.7196C195.241 11.5175 193.861 10.5746 192.221 9.89269C190.58 9.21081 188.68 8.86987 186.517 8.86987H175.108V34.9072H186.517C189.4 34.9072 191.823 34.3189 193.787 33.1407C195.75 31.9632 197.229 30.3885 198.224 28.4165C199.218 26.4452 199.715 24.2692 199.715 21.8881C199.715 20.1283 199.435 18.4604 198.876 16.8852Z" fill="white"/>
<path fill-rule="evenodd" clip-rule="evenodd" d="M94.4006 60.4177C95.1546 60.4177 95.8541 60.2196 96.4986 59.8223C97.1421 59.4262 97.6596 58.8994 98.0492 58.2422C98.4377 57.5853 98.6328 56.8604 98.6328 56.0662C98.6328 55.2978 98.4377 54.6035 98.0492 53.9834C97.6596 53.3634 97.1421 52.8671 96.4986 52.4948C95.8541 52.1238 95.1546 51.9378 94.4006 51.9378H86.63V60.4177H94.4006ZM94.8751 48.069C96.2856 48.069 97.5866 48.4224 98.7786 49.129C99.9695 49.8359 100.924 50.791 101.643 51.993C102.359 53.1959 102.719 54.5541 102.719 56.0662C102.719 57.6045 102.348 58.9917 101.606 60.2318C100.864 61.4718 99.8789 62.4578 98.6508 63.189C97.4223 63.9206 96.066 64.2862 94.5829 64.2862H86.63V74.1063H82.6899V48.069H94.8751Z" fill="white"/>
<path fill-rule="evenodd" clip-rule="evenodd" d="M122.597 51.9324H114.937V60.5125H123.214C124.061 60.5125 124.805 60.3135 125.447 59.9183C126.088 59.5224 126.584 58.9955 126.935 58.3396C127.286 57.6833 127.462 56.9711 127.462 56.2035C127.462 55.3615 127.244 54.6189 126.808 53.9751C126.373 53.3313 125.785 52.8302 125.047 52.4706C124.309 52.1118 123.492 51.9324 122.597 51.9324ZM131.528 56.2402C131.528 57.9245 131.031 59.4532 130.038 60.8283C129.046 62.2022 127.776 63.1989 126.228 63.8181L132.762 74.1063L127.933 74.0696L121.871 64.3747H114.937V74.0696H111.016V48.069H123.432C124.811 48.069 126.118 48.4094 127.352 49.0903C128.587 49.7716 129.591 50.7312 130.366 51.9695C131.14 53.2078 131.528 54.631 131.528 56.2402Z" fill="white"/>
<path fill-rule="evenodd" clip-rule="evenodd" d="M161.882 61.0874C161.882 59.2895 161.462 57.6814 160.623 56.2653C159.785 54.8485 158.625 53.7273 157.145 52.9013C155.665 52.076 153.975 51.6638 152.075 51.6638C150.126 51.6638 148.418 52.076 146.95 52.9013C145.482 53.7273 144.335 54.8485 143.509 56.2653C142.682 57.6814 142.268 59.2895 142.268 61.0874C142.268 62.8861 142.682 64.4939 143.509 65.9103C144.335 67.3279 145.482 68.4483 146.95 69.2732C148.418 70.0992 150.126 70.5119 152.075 70.5119C153.975 70.5119 155.665 70.0992 157.145 69.2732C158.625 68.4483 159.785 67.3209 160.623 65.892C161.462 64.4636 161.882 62.8616 161.882 61.0874ZM165.952 61.0874C165.952 62.9596 165.613 64.7039 164.934 66.3171C164.256 67.9315 163.293 69.3417 162.048 70.5488C160.803 71.7564 159.334 72.6983 157.644 73.3762C155.954 74.0529 154.098 74.3924 152.075 74.3924C150.052 74.3924 148.189 74.0529 146.487 73.3762C144.785 72.6983 143.317 71.7564 142.084 70.5488C140.85 69.3417 139.894 67.9315 139.216 66.3171C138.537 64.7039 138.198 62.9596 138.198 61.0874C138.198 59.2156 138.537 57.4725 139.216 55.8582C139.894 54.2446 140.85 52.834 142.084 51.6268C143.317 50.42 144.785 49.4773 146.487 48.7991C148.189 48.1216 150.052 47.7828 152.075 47.7828C154.098 47.7828 155.954 48.1216 157.644 48.7991C159.334 49.4773 160.803 50.42 162.048 51.6268C163.293 52.834 164.256 54.2446 164.934 55.8582C165.613 57.4725 165.952 59.2156 165.952 61.0874Z" fill="white"/>
<path fill-rule="evenodd" clip-rule="evenodd" d="M177.769 74.1063V51.9378H169.672V48.069H189.987V51.9378H181.673V74.1063H177.769Z" fill="white"/>
<path fill-rule="evenodd" clip-rule="evenodd" d="M217.104 61.0874C217.104 59.2895 216.684 57.6814 215.845 56.2653C215.007 54.8485 213.847 53.7273 212.367 52.9013C210.887 52.076 209.197 51.6638 207.297 51.6638C205.348 51.6638 203.64 52.076 202.172 52.9013C200.705 53.7273 199.557 54.8485 198.731 56.2653C197.904 57.6814 197.491 59.2895 197.491 61.0874C197.491 62.8861 197.904 64.4939 198.731 65.9103C199.557 67.3279 200.705 68.4483 202.172 69.2732C203.64 70.0992 205.348 70.5119 207.297 70.5119C209.197 70.5119 210.887 70.0992 212.367 69.2732C213.847 68.4483 215.007 67.3209 215.845 65.892C216.684 64.4636 217.104 62.8616 217.104 61.0874ZM221.174 61.0874C221.174 62.9596 220.835 64.7039 220.156 66.3171C219.478 67.9315 218.515 69.3417 217.27 70.5488C216.025 71.7564 214.556 72.6983 212.866 73.3762C211.176 74.0529 209.32 74.3924 207.297 74.3924C205.274 74.3924 203.411 74.0529 201.71 73.3762C200.007 72.6983 198.539 71.7564 197.306 70.5488C196.072 69.3417 195.116 67.9315 194.438 66.3171C193.759 64.7039 193.42 62.9596 193.42 61.0874C193.42 59.2156 193.759 57.4725 194.438 55.8582C195.116 54.2446 196.072 52.834 197.306 51.6268C198.539 50.42 200.007 49.4773 201.71 48.7991C203.411 48.1216 205.274 47.7828 207.297 47.7828C209.32 47.7828 211.176 48.1216 212.866 48.7991C214.556 49.4773 216.025 50.42 217.27 51.6268C218.515 52.834 219.478 54.2446 220.156 55.8582C220.835 57.4725 221.174 59.2156 221.174 61.0874Z" fill="white"/>
<path fill-rule="evenodd" clip-rule="evenodd" d="M250.846 70.3195C250.253 70.908 249.443 71.4902 248.417 72.0659C247.391 72.6416 246.21 73.1263 244.875 73.5182C243.539 73.9098 242.117 74.1063 240.609 74.1063C238.73 74.1063 236.975 73.7937 235.343 73.1689C233.711 72.5437 232.282 71.6551 231.058 70.5033C229.834 69.3516 228.883 67.9604 228.203 66.3301C227.522 64.7009 227.183 62.8811 227.183 60.8709C227.183 58.9841 227.541 57.2439 228.258 55.6504C228.975 54.0576 229.97 52.673 231.244 51.4965C232.517 50.32 233.97 49.4073 235.602 48.7574C237.234 48.1086 238.965 47.7828 240.795 47.7828C242.327 47.7828 243.768 47.9983 245.116 48.4266C246.463 48.856 247.663 49.4011 248.714 50.0627C249.765 50.7246 250.599 51.4226 251.217 52.158L248.658 55.173C247.57 54.1678 246.365 53.3411 245.042 52.6911C243.719 52.0423 242.253 51.7166 240.646 51.7166C239.064 51.7166 237.555 52.0845 236.121 52.82C234.687 53.555 233.519 54.6093 232.616 55.9815C231.714 57.3545 231.263 58.9841 231.263 60.8709C231.263 62.9302 231.726 64.6452 232.653 66.0179C233.581 67.3913 234.792 68.4254 236.288 69.1241C237.784 69.8236 239.398 70.1725 241.129 70.1725C242.884 70.1725 244.404 69.8356 245.691 69.1616C246.976 68.4877 248.04 67.7824 248.88 67.0473L250.846 70.3195Z" fill="white"/>
<path fill-rule="evenodd" clip-rule="evenodd" d="M279.765 61.0874C279.765 59.2895 279.344 57.6814 278.507 56.2653C277.668 54.8485 276.508 53.7273 275.028 52.9013C273.548 52.076 271.857 51.6638 269.959 51.6638C268.01 51.6638 266.3 52.076 264.833 52.9013C263.365 53.7273 262.217 54.8485 261.391 56.2653C260.565 57.6814 260.152 59.2895 260.152 61.0874C260.152 62.8861 260.565 64.4939 261.391 65.9103C262.217 67.3279 263.365 68.4483 264.833 69.2732C266.3 70.0992 268.01 70.5119 269.959 70.5119C271.857 70.5119 273.548 70.0992 275.028 69.2732C276.508 68.4483 277.668 67.3209 278.507 65.892C279.344 64.4636 279.765 62.8616 279.765 61.0874ZM283.836 61.0874C283.836 62.9596 283.496 64.7039 282.818 66.3171C282.139 67.9315 281.177 69.3417 279.931 70.5488C278.685 71.7564 277.217 72.6983 275.528 73.3762C273.838 74.0529 271.98 74.3924 269.959 74.3924C267.935 74.3924 266.073 74.0529 264.37 73.3762C262.668 72.6983 261.2 71.7564 259.967 70.5488C258.733 69.3417 257.777 67.9315 257.099 66.3171C256.42 64.7039 256.082 62.9596 256.082 61.0874C256.082 59.2156 256.42 57.4725 257.099 55.8582C257.777 54.2446 258.733 52.834 259.967 51.6268C261.2 50.42 262.668 49.4773 264.37 48.7991C266.073 48.1216 267.935 47.7828 269.959 47.7828C271.98 47.7828 273.838 48.1216 275.528 48.7991C277.217 49.4773 278.685 50.42 279.931 51.6268C281.177 52.834 282.139 54.2446 282.818 55.8582C283.496 57.4725 283.836 59.2156 283.836 61.0874Z" fill="white"/>
<path fill-rule="evenodd" clip-rule="evenodd" d="M309.014 70.2378V74.1063H290.989V48.069H294.946V70.2378H309.014Z" fill="white"/>
<path fill-rule="evenodd" clip-rule="evenodd" d="M57.7955 56.4723C57.7955 63.4143 52.117 69.061 45.1356 69.061H20.8632L46.0884 43.9778C52.618 44.4724 57.7955 49.8545 57.7955 56.4723ZM17.2839 42.8425V13.6693H45.1356C45.6116 13.6693 46.081 13.6949 46.5433 13.7468L17.2839 42.8425ZM62.8573 26.2595C62.8573 20.3828 59.9507 15.1699 55.4919 11.9662L67.5254 0L60.3266 0.0410584L50.7662 9.54723C48.9966 8.95653 47.1031 8.63581 45.1356 8.63581H12.2221V54.9938L51.8486 15.589C55.4178 17.8182 57.7955 21.7679 57.7955 26.2595C57.7955 33.2015 52.117 38.8486 45.1356 38.8486H44.0878L0 82.69H7.15788L15.8014 74.0945H45.1356C54.9072 74.0945 62.8573 66.1892 62.8573 56.4723C62.8573 50.0637 59.389 44.4604 54.2321 41.3756C59.3945 38.2916 62.8573 32.6712 62.8573 26.2595Z" fill="white"/>
</svg>
